<?xml version="1.0" encoding="utf-8"?>
<!-- Generator: Adobe Illustrator 25.2.3, SVG Export Plug-In . SVG Version: 6.00 Build 0)  -->
<svg version="1.1" id="Capa_1" xmlns="http://www.w3.org/2000/svg" xmlns:xlink="http://www.w3.org/1999/xlink" x="0px" y="0px"
	 viewBox="0 0 180 150" style="enable-background:new 0 0 180 150;" xml:space="preserve">
<style type="text/css">
	.st0{fill:#F02D00;}
</style>
<desc>Created with Sketch.</desc>
<g id="dmstk-logo-sprite">
	<path id="logo-active" class="st0" d="M76.2,85h14.2v-3.9H80.2v-4h8.3v-3.9h-8.3v-4h10.2v-3.9H76.2V85L76.2,85z M85.6,62.7l2.6-3.5
		L86,56l-2.7,3.6L80.6,56l-2.2,3.2l2.6,3.5H85.6L85.6,62.7z M125.1,65.1h4v20h-4V65.1L125.1,65.1z M106.4,69.2h6.3V85h4.1V69.2h6.3
		v-4h-16.7L106.4,69.2L106.4,69.2z M158.9,65.1h-4.3l-7.1,20h4.2l1.5-4.2h7.1l1.5,4.2h4.2L158.9,65.1L158.9,65.1z M154.5,76.9l2.2-6
		l2.2,6H154.5L154.5,76.9z M43.5,64.8c-5.7,0-10.3,4.6-10.3,10.3s4.6,10.3,10.3,10.3s10.3-4.6,10.3-10.3S49.2,64.8,43.5,64.8
		L43.5,64.8z M43.5,81.2c-3.4,0-6.1-2.8-6.1-6.1c0-3.3,2.8-6.1,6.1-6.1s6.1,2.8,6.1,6.1C49.6,78.5,46.8,81.2,43.5,81.2L43.5,81.2z
		 M22.1,65.1H15V85h7.1c5.5,0,10-4.4,10-9.9C32.1,69.5,27.6,65.1,22.1,65.1L22.1,65.1z M22.1,80.9H19V69.2h3.2
		c3.2,0,5.9,2.6,5.9,5.9C28.1,78.3,25.4,80.9,22.1,80.9L22.1,80.9z M64.7,74.5l-5.1-9.4H55v20h4V72.5l5.6,10.3l5.6-10.3v12.6h4.1
		v-20h-4.6L64.7,74.5L64.7,74.5z M147.2,65.1h-4.9l-6.6,8.8v-8.8h-4v20h4v-4.3l2-2.7l4.7,7h4.9l-7.1-10.5L147.2,65.1L147.2,65.1z
		 M102.6,74.4c-1.5-0.8-2.8-1.2-3.8-1.4c-1-0.2-1.8-0.4-2.4-0.9c-0.3-0.3-0.9-1.4-0.2-2.4c0.5-0.6,1.3-1,2.3-1
		c0.9,0,1.8,0.4,2.3,0.9c0.6,0.7,0.9,1.3,0.9,1.3l0.1,0.2l3.7-1.5v-0.1c-0.1-0.4-0.6-1.8-2.2-3.1c-1.2-1.1-3-1.6-4.8-1.6
		c-2.3,0-4.3,0.8-5.5,2.3c-1.3,1.5-1.8,3.3-1.3,5.1s1.6,3.2,3.3,4c1.3,0.6,2.2,0.8,3,1.1c0.6,0.2,1.3,0.4,2.2,0.7
		c0.9,0.4,1.4,1.1,1.3,1.8c-0.2,1.1-1.4,1.8-2.4,1.9h-0.4c-1.2,0-2.9-0.4-3.7-2.3l-3.7,1.6c0.3,0.6,0.9,2.2,2.6,3.3
		c1.3,0.9,3,1.4,4.8,1.4c3,0,5.4-1.3,6.6-3.7C106.5,79.1,105.5,76,102.6,74.4L102.6,74.4z"/>
</g>
</svg>
