<?xml version="1.0" encoding="utf-8"?>
<!-- Generator: Adobe Illustrator 25.2.3, SVG Export Plug-In . SVG Version: 6.00 Build 0)  -->
<svg version="1.1" id="Capa_1" xmlns="http://www.w3.org/2000/svg" xmlns:xlink="http://www.w3.org/1999/xlink" x="0px" y="0px"
	 viewBox="0 0 165 44.2" style="enable-background:new 0 0 165 44.2;" xml:space="preserve">
<style type="text/css">
	.st0{fill:#F02D00;}
</style>
<desc>Created with Sketch.</desc>
<g id="dmstk-logo-sprite">
	<path id="logo-active" class="st0" d="M67.2,37.3h14.2v-3.9H71.2v-4h8.3v-3.9h-8.3v-4h10.2v-3.9H67.2V37.3L67.2,37.3z M76.6,15
		l2.6-3.5L77,8.3l-2.7,3.6l-2.7-3.6l-2.2,3.2L72,15H76.6L76.6,15z M116.1,17.4h4v20h-4L116.1,17.4L116.1,17.4z M97.4,21.5h6.3v15.8
		h4.1V21.5h6.3v-4H97.4L97.4,21.5L97.4,21.5z M149.9,17.4h-4.3l-7.1,20h4.2l1.5-4.2h7.1l1.5,4.2h4.2L149.9,17.4L149.9,17.4z
		 M145.5,29.2l2.2-6l2.2,6H145.5L145.5,29.2z M34.5,17.1c-5.7,0-10.3,4.6-10.3,10.3s4.6,10.3,10.3,10.3s10.3-4.6,10.3-10.3
		S40.2,17.1,34.5,17.1L34.5,17.1z M34.5,33.5c-3.4,0-6.1-2.8-6.1-6.1c0-3.3,2.8-6.1,6.1-6.1s6.1,2.8,6.1,6.1
		C40.6,30.8,37.8,33.5,34.5,33.5L34.5,33.5z M13.1,17.4H6v19.9h7.1c5.5,0,10-4.4,10-9.9C23.1,21.8,18.6,17.4,13.1,17.4L13.1,17.4z
		 M13.1,33.2H10V21.5h3.2c3.2,0,5.9,2.6,5.9,5.9C19.1,30.6,16.4,33.2,13.1,33.2L13.1,33.2z M55.7,26.8l-5.1-9.4H46v20h4V24.8
		l5.6,10.3l5.6-10.3v12.6h4.1v-20h-4.6L55.7,26.8L55.7,26.8z M138.2,17.4h-4.9l-6.6,8.8v-8.8h-4v20h4v-4.3l2-2.7l4.7,7h4.9
		l-7.1-10.5L138.2,17.4L138.2,17.4z M93.6,26.7c-1.5-0.8-2.8-1.2-3.8-1.4c-1-0.2-1.8-0.4-2.4-0.9c-0.3-0.3-0.9-1.4-0.2-2.4
		c0.5-0.6,1.3-1,2.3-1c0.9,0,1.8,0.4,2.3,0.9c0.6,0.7,0.9,1.3,0.9,1.3l0.1,0.2l3.7-1.5v-0.1c-0.1-0.4-0.6-1.8-2.2-3.1
		c-1.2-1.1-3-1.6-4.8-1.6c-2.3,0-4.3,0.8-5.5,2.3c-1.3,1.5-1.8,3.3-1.3,5.1s1.6,3.2,3.3,4c1.3,0.6,2.2,0.8,3,1.1
		c0.6,0.2,1.3,0.4,2.2,0.7c0.9,0.4,1.4,1.1,1.3,1.8c-0.2,1.1-1.4,1.8-2.4,1.9h-0.4c-1.2,0-2.9-0.4-3.7-2.3l-3.7,1.6
		c0.3,0.6,0.9,2.2,2.6,3.3c1.3,0.9,3,1.4,4.8,1.4c3,0,5.4-1.3,6.6-3.7C97.5,31.4,96.5,28.3,93.6,26.7L93.6,26.7z"/>
</g>
</svg>
